<?xml version="1.0" standalone="no"?><!DOCTYPE svg PUBLIC "-//W3C//DTD SVG 1.1//EN" "http://www.w3.org/Graphics/SVG/1.1/DTD/svg11.dtd"><svg t="1548150969259" class="icon" style="" viewBox="0 0 1024 1024" version="1.1" xmlns="http://www.w3.org/2000/svg" p-id="3124" xmlns:xlink="http://www.w3.org/1999/xlink" width="200" height="200"><defs><style type="text/css"></style></defs><path d="M916.7 85.9H65c-21 0-38.3-17.2-38.3-38.3C26.8 26.6 44 9.4 65 9.4h851.7c21 0 38.3 17.2 38.3 38.3-0.2 21-17.4 38.2-38.3 38.2zM550.8 268.5v701.8c0 26.2-21.5 47.7-47.7 47.7-26.2 0-47.7-21.5-47.7-47.7V268.5c0-26.2 21.5-47.7 47.7-47.7 26.2-0.1 47.7 21.3 47.7 47.7z" fill="#DF5E3D" p-id="3125"></path><path d="M858.5 605.8L477.1 242c-15.2-14.6-15.8-38.8-1.2-54 14.6-15.2 38.8-15.8 54-1.2l381.4 363.8c15.2 14.6 15.8 38.8 1.2 54-14.5 15.1-38.8 15.8-54 1.2z" fill="#DF5E3D" p-id="3126"></path><path d="M148.3 605.8L529.7 242c15.2-14.6 15.8-38.8 1.2-54-14.6-15.2-38.8-15.8-54-1.2L95.5 550.6c-15.2 14.6-15.8 38.8-1.2 54 14.5 15.1 38.8 15.8 54 1.2z" fill="#DF5E3D" p-id="3127"></path></svg>