<?xml version="1.0" standalone="no"?><!DOCTYPE svg PUBLIC "-//W3C//DTD SVG 1.1//EN" "http://www.w3.org/Graphics/SVG/1.1/DTD/svg11.dtd"><svg t="1547887951030" class="icon" style="" viewBox="0 0 1024 1024" version="1.1" xmlns="http://www.w3.org/2000/svg" p-id="12432" xmlns:xlink="http://www.w3.org/1999/xlink" width="200" height="200"><defs><style type="text/css"></style></defs><path d="M390.63703666 493.33437667c53.54533888 0 97.09036999-43.01103445 97.09036999-95.85246776 0-52.88997888-43.54503111-95.85246777-97.09036999-95.85246777-53.54533888 0-97.09036999 42.96248889-97.09036999 95.85246777C293.54666667 450.32334222 337.09169778 493.33437667 390.63703666 493.33437667zM390.63703666 349.56780999c26.77267001 0 48.54518557 21.48124445 48.54518556 47.93836999 0 26.38430777-21.77251555 47.91409778-48.54518556 47.91409778s-48.54518557-21.52979001-48.54518557-47.91409778C342.09185223 371.04905443 363.86436779 349.56780999 390.63703666 349.56780999zM876.08888889 123.6385189L147.91111111 123.6385189c-66.91953778 0-121.36296334 53.71524779-121.36296334 119.80951665l0 561.37652111C26.54814777 870.8702811 80.99157333 924.63407445 147.91111111 924.63407445l728.17777778 0c66.91953778 0 121.36296334-53.76379221 121.36296334-119.80951666L997.45185223 243.44803555C997.45185223 177.35376555 943.00842667 123.6385189 876.08888889 123.6385189zM948.90666667 803.27111111c0 39.63714333-32.67091001 72.81777778-72.81777778 72.81777778L147.91111111 876.08888889c-40.14686777 0-72.81777778-33.18063445-72.81777778-72.81777778L75.09333333 245.0014811c0-39.63714333 32.67091001-72.81777778 72.81777778-72.81777777l728.17777778 0c40.14686777 0 72.81777778 33.18063445 72.81777778 72.81777777L948.90666667 803.27111111zM845.91805667 422.14286222c-116.9210789 28.86011221-167.89352334 108.57130667-205.10340778 166.75271111-29.51547221 46.09365333-47.64709888 72.16241778-79.39564999 72.16241778l-0.04854557 0c-43.20521443 0-69.61379555-17.64617443-97.57582222-34.83116999-29.70965333-18.25299001-60.39020999-37.06424889-108.06158222-37.06424889-92.23585223 0-191.29230222 115.36763221-202.28778667 128.52337778C149.87719111 721.9821989 147.91111111 727.37071445 147.91111111 732.95340999l0 47.91409778C147.91111111 794.12034333 158.78523221 803.27111111 172.18370333 803.27111111l679.63259221 0c13.39847111 0 24.27259221-9.15076779 24.27259221-22.40360334l0-335.44723001c0-7.40314112-3.44670777-14.36937443-9.34494777-18.90835001C860.86997333 421.97295445 853.1755611 420.32241778 845.91805667 422.14286222zM827.54370333 754.72592555L196.45629667 754.72592555c30.31646777-34.29717333 103.98378667-117.62498333 159.27675222-117.62498333 33.8117211 0 56.33668779 13.81110557 82.42972444 29.85528889 30.65628445 18.76271445 65.36609223 40.12259555 121.55714333 41.99158556l3.59234332 0.09709c58.08431445 0 87.45415111-45.92374557 118.54734223-94.54174777C714.31205888 563.67635001 750.67240334 516.66033778 827.54370333 487.72740779L827.54370333 754.72592555z" fill="#42B8F8" p-id="12433"></path></svg>